<?xml version="1.0" encoding="UTF-8"?>
<svg id="Layer_2" data-name="Layer 2" xmlns="http://www.w3.org/2000/svg" viewBox="0 0 61.46 40">
  <defs>
    <style>
      .cls-1 {
        fill: #fbbb02;
      }
    </style>
  </defs>
  <g id="_レイヤー_1" data-name="レイヤー 1">
    <g>
      <g>
        <path class="cls-1" d="m6.53,32.2c-.25,0-.63-.08-1-.46-.36-.37-.56-.87-.56-1.41s.2-1.04.56-1.41c.37-.38.75-.46,1-.46s.63.08,1,.46c.36.37.56.87.56,1.41s-.2,1.04-.56,1.41c-.37.38-.75.46-1,.46Zm0-2.77c-.1,0-.2.06-.31.17-.18.19-.28.45-.28.73s.1.55.28.73c.22.22.4.22.62,0,.18-.19.28-.45.28-.73s-.1-.55-.28-.73c-.11-.11-.21-.17-.31-.17Z"/>
        <path class="cls-1" d="m18.41,37.79c-1.49-2.03-2.31-4.68-2.31-7.46s.82-5.44,2.31-7.46c.66-.9,1.43-1.64,2.26-2.21H7.48c-2.08,0-4,1.06-5.42,2.99-1.33,1.8-2.06,4.17-2.06,6.68s.73,4.88,2.06,6.68c1.42,1.93,3.34,2.99,5.42,2.99h13.2c-.83-.57-1.6-1.31-2.26-2.21Zm-9.68-11.06c.75.93,1.17,2.2,1.17,3.6s-.43,2.72-1.21,3.66c-.53.64-1.08.96-1.63.96s-1.1-.32-1.64-.96c-.78-.93-1.21-2.23-1.21-3.66s.43-2.72,1.21-3.66c.53-.64,1.08-.96,1.64-.96.29,0,.58.09.86.27l-.44,2.1,1.26-1.35Zm2.39,8.98c-.7.95-1.91,2.09-3.65,2.09s-2.95-1.14-3.65-2.09c-1.05-1.43-1.63-3.34-1.63-5.38s.58-3.95,1.63-5.38c.7-.95,1.91-2.09,3.65-2.09.38,0,.73.05,1.06.15l-.34,1.64c-.37-.16-.75-.25-1.14-.25-.96,0-1.85.48-2.64,1.43-.98,1.17-1.52,2.77-1.52,4.5s.54,3.33,1.52,4.5c.8.95,1.68,1.43,2.64,1.43s1.85-.48,2.64-1.43c.98-1.17,1.52-2.77,1.52-4.5s-.54-3.33-1.52-4.5c-.02-.02-.04-.05-.06-.07l1.15-1.24c.12.14.24.29.34.43,1.05,1.43,1.63,3.34,1.63,5.38s-.58,3.95-1.63,5.38Z"/>
      </g>
      <g>
        <path class="cls-1" d="m13.99,11.54c-.25,0-.63-.08-1-.46-.36-.37-.56-.87-.56-1.41s.2-1.04.56-1.41c.37-.38.75-.46,1-.46s.63.08,1,.46c.36.37.56.87.56,1.41s-.2,1.04-.56,1.41c-.37.38-.75.46-1,.46Zm0-2.77c-.1,0-.2.06-.31.17-.18.19-.28.45-.28.73s.1.55.28.73c.22.22.4.22.62,0,.18-.19.28-.45.28-.73s-.1-.55-.28-.73c-.11-.11-.21-.17-.31-.17Z"/>
        <path class="cls-1" d="m49.45,2.99c-1.42-1.93-3.34-2.99-5.42-2.99H14.94c-2.08,0-4,1.06-5.42,2.99-1.33,1.8-2.06,4.17-2.06,6.68s.73,4.88,2.06,6.68c1.42,1.93,3.34,2.99,5.42,2.99h29.09c2.08,0,4-1.06,5.42-2.99,1.33-1.8,2.06-4.17,2.06-6.68s-.73-4.88-2.06-6.68Zm-33.25,3.08c.75.93,1.17,2.2,1.17,3.6s-.43,2.72-1.21,3.66c-.53.64-1.08.96-1.63.96s-1.1-.32-1.63-.96c-.78-.93-1.21-2.23-1.21-3.66s.43-2.72,1.21-3.66c.53-.64,1.08-.96,1.63-.96.29,0,.58.09.86.27l-.44,2.1,1.26-1.35Zm2.39,8.98c-.7.95-1.91,2.09-3.65,2.09s-2.95-1.14-3.65-2.09c-1.05-1.43-1.63-3.34-1.63-5.38s.58-3.95,1.63-5.38c.7-.95,1.91-2.09,3.65-2.09.38,0,.73.05,1.06.15l-.34,1.64c-.37-.16-.75-.24-1.14-.24-.96,0-1.85.48-2.64,1.43-.98,1.17-1.52,2.77-1.52,4.5s.54,3.33,1.52,4.5c.8.95,1.68,1.43,2.64,1.43s1.85-.48,2.64-1.43c.98-1.17,1.52-2.77,1.52-4.5s-.54-3.33-1.52-4.5c-.02-.02-.04-.05-.06-.07l1.15-1.24c.12.14.24.29.34.43,1.05,1.43,1.63,3.34,1.63,5.38s-.58,3.95-1.63,5.38Zm6.83-10.54c0-.3.24-.54.54-.54h11.33c.3,0,.54.24.54.54s-.24.54-.54.54h-11.33c-.3,0-.54-.24-.54-.54Zm21.84,5.71h-13.79c-.3,0-.54-.24-.54-.54s.24-.54.54-.54h13.79c.3,0,.54.24.54.54s-.24.54-.54.54Z"/>
      </g>
      <g>
        <path class="cls-1" d="m23.95,32.2c-.25,0-.63-.08-1-.46-.36-.37-.56-.87-.56-1.41s.2-1.04.56-1.41c.37-.38.75-.46,1-.46s.63.08,1,.46c.36.37.56.87.56,1.41s-.2,1.04-.56,1.41c-.37.38-.75.46-1,.46Zm0-2.77c-.1,0-.2.06-.31.17-.18.19-.28.45-.28.73s.1.55.28.73c.22.22.4.22.62,0,.18-.19.28-.45.28-.73s-.1-.55-.28-.73c-.11-.11-.21-.17-.31-.17Z"/>
        <path class="cls-1" d="m59.4,23.65c-1.42-1.93-3.34-2.99-5.42-2.99h-29.09c-2.08,0-4,1.06-5.42,2.99-1.33,1.8-2.06,4.17-2.06,6.68s.73,4.88,2.06,6.68c1.42,1.93,3.34,2.99,5.42,2.99h29.09c2.08,0,4-1.06,5.42-2.99,1.33-1.8,2.06-4.17,2.06-6.68s-.73-4.88-2.06-6.68Zm-33.25,3.08c.75.93,1.17,2.2,1.17,3.6s-.43,2.72-1.21,3.66c-.53.64-1.08.96-1.63.96s-1.1-.32-1.63-.96c-.78-.93-1.21-2.23-1.21-3.66s.43-2.72,1.21-3.66c.53-.64,1.08-.96,1.63-.96.29,0,.58.09.86.27l-.44,2.1,1.26-1.35Zm2.39,8.98c-.7.95-1.91,2.09-3.65,2.09s-2.95-1.14-3.65-2.09c-1.05-1.43-1.63-3.34-1.63-5.38s.58-3.95,1.63-5.38c.7-.95,1.91-2.09,3.65-2.09.38,0,.73.05,1.06.15l-.34,1.64c-.37-.16-.75-.25-1.14-.25-.96,0-1.85.48-2.64,1.43-.98,1.17-1.52,2.77-1.52,4.5s.54,3.33,1.52,4.5c.8.95,1.68,1.43,2.64,1.43s1.85-.48,2.64-1.43c.98-1.17,1.52-2.77,1.52-4.5s-.54-3.33-1.52-4.5c-.02-.02-.04-.05-.06-.07l1.15-1.24c.12.14.24.29.34.43,1.05,1.43,1.63,3.34,1.63,5.38s-.58,3.95-1.63,5.38Zm6.19-7.25c0-.3.24-.54.54-.54h11.33c.3,0,.54.24.54.54s-.24.54-.54.54h-11.33c-.3,0-.54-.24-.54-.54Zm21.84,5.71h-13.79c-.3,0-.54-.24-.54-.54s.24-.54.54-.54h13.79c.3,0,.54.24.54.54s-.24.54-.54.54Z"/>
      </g>
    </g>
  </g>
</svg>