<?xml version="1.0" encoding="UTF-8"?>
<svg id="Layer_2" data-name="Layer 2" xmlns="http://www.w3.org/2000/svg" viewBox="0 0 60 33.08">
  <defs>
    <style>
      .cls-1 {
        fill: #fbbb02;
      }
    </style>
  </defs>
  <g id="_レイヤー_1" data-name="レイヤー 1">
    <g>
      <polygon class="cls-1" points="60 4.51 60 0 45.67 0 45.67 4.51 51.19 4.51 51.19 28.58 45.67 28.58 45.67 33.08 60 33.08 60 28.58 55.7 28.58 55.7 4.51 60 4.51"/>
      <polygon class="cls-1" points="0 26.75 0 31.26 43.79 33.08 43.79 28.58 0 26.75"/>
      <polygon class="cls-1" points="0 1.82 0 6.33 43.79 4.51 43.79 0 0 1.82"/>
      <path class="cls-1" d="m2.98,8.49v16.12l45.46,1.89V6.59L2.98,8.49Zm5.85,11.6c-1.2,0-2.17-1.59-2.17-3.54s.97-3.54,2.17-3.54,2.17,1.59,2.17,3.54-.97,3.54-2.17,3.54Zm6.65,0c-1.2,0-2.17-1.59-2.17-3.54s.97-3.54,2.17-3.54,2.17,1.59,2.17,3.54-.97,3.54-2.17,3.54Zm6.76,0c-1.2,0-2.17-1.59-2.17-3.54s.97-3.54,2.17-3.54,2.17,1.59,2.17,3.54-.97,3.54-2.17,3.54Zm6.7,0c-1.2,0-2.17-1.59-2.17-3.54s.97-3.54,2.17-3.54,2.17,1.59,2.17,3.54-.97,3.54-2.17,3.54Zm6.88,0c-1.2,0-2.17-1.59-2.17-3.54s.97-3.54,2.17-3.54,2.17,1.59,2.17,3.54-.97,3.54-2.17,3.54Zm6.68,0c-1.2,0-2.17-1.59-2.17-3.54s.97-3.54,2.17-3.54,2.17,1.59,2.17,3.54-.97,3.54-2.17,3.54Z"/>
    </g>
  </g>
</svg>