<?xml version="1.0" encoding="UTF-8"?>
<svg id="Layer_2" data-name="Layer 2" xmlns="http://www.w3.org/2000/svg" viewBox="0 0 70 34.44">
  <defs>
    <style>
      .cls-1 {
        fill: #fbbb02;
      }
    </style>
  </defs>
  <g id="_レイヤー_1" data-name="レイヤー 1">
    <g>
      <path class="cls-1" d="m47.24,25.22c.6-.56,1.18-1.16,1.83-1.67.22-.18.6-.2.91-.21.97-.02,1.94-.02,2.91,0,.41,0,.58-.14.58-.56-.01-1.86-.02-3.72,0-5.58,0-.68-.41-.62-.86-.62-8.63,0-17.26,0-25.89,0-4.85,0-9.71,0-14.56,0-.29,0-.59,0-1.04,0,0,.98-.11,1.93.02,2.83.26,1.72-1.06,2.33-2.13,3.22,0-1.55.14-3.12-.04-4.65-.22-1.94.54-3.23,1.9-4.54C15.26,9.24,19.5,4.9,23.78.61,24.21.17,24.65,0,25.27,0c14.53.01,29.07,0,43.6,0q1.13,0,1.13,1.14c0,2.75.02,5.5-.02,8.25,0,.41-.2.91-.48,1.2-4.75,4.78-9.51,9.55-14.3,14.28-.32.31-.87.54-1.32.55-2.15.06-4.31.03-6.46.03-.06-.08-.11-.15-.17-.23ZM12.12,15.01c.07.1.13.2.2.31.23.01.47.04.7.04,13.32,0,26.64,0,39.97.01.63,0,1.06-.2,1.48-.63,3.61-3.63,7.24-7.24,10.86-10.86.52-.52,1.02-1.06,1.62-1.69-.3-.04-.43-.08-.56-.08-13.48,0-26.97,0-40.45.02-.4,0-.9.22-1.19.5-3.23,3.17-6.42,6.39-9.63,9.57-.97.96-2,1.87-3,2.8Zm42.55,7.38c.33-.27.51-.39.65-.53,3.56-3.56,7.04-7.2,10.71-10.65,1.47-1.38,2.16-2.78,1.91-4.76-.13-1.04-.02-2.12-.02-3.34-.3.23-.45.33-.58.45-3.6,3.59-7.12,7.27-10.83,10.75-1.49,1.4-2.08,2.83-1.86,4.79.12,1.02.02,2.07.02,3.29Z"/>
      <path class="cls-1" d="m.98,34.44c-.29-.23-.66-.38-.69-.59-.05-.32.02-.77.22-.99.95-1.03,1.95-2.01,2.94-3,3.33-3.33,6.67-6.67,10-10,.06-.06.11-.12.17-.17.43-.41.91-.81,1.45-.26.56.57.11,1.02-.31,1.44-4.27,4.27-8.53,8.54-12.8,12.8-.27.27-.61.48-.98.77Z"/>
      <path class="cls-1" d="m26.33,19.05c.3.22.66.35.71.56.08.28.04.73-.14.93-.63.73-1.34,1.4-2.03,2.08-3.68,3.68-7.35,7.36-11.03,11.03-.11.11-.23.23-.35.34-.38.35-.8.47-1.21.07-.41-.4-.32-.83.05-1.21.94-.96,1.89-1.92,2.84-2.87,3.37-3.37,6.74-6.75,10.12-10.11.29-.29.65-.52,1.04-.83Z"/>
      <path class="cls-1" d="m50.88,20.14c-.14.18-.35.52-.62.79-1.93,1.95-3.87,3.89-5.81,5.83-2.26,2.26-4.53,4.53-6.8,6.79-.15.15-.31.3-.46.45-.42.38-.86.48-1.27.03-.4-.43-.23-.84.14-1.2,1.54-1.54,3.09-3.08,4.63-4.62,2.84-2.84,5.67-5.68,8.51-8.51.19-.18.41-.37.65-.45.53-.18,1.01.16,1.04.9Z"/>
      <path class="cls-1" d="m24.69,34.44c-.29-.22-.61-.35-.71-.57-.1-.23-.07-.6.06-.81.22-.36.56-.65.86-.95,4.08-4.08,8.16-8.15,12.24-12.22.08-.08.15-.15.23-.23.41-.42.89-.72,1.4-.22.53.52.17.96-.24,1.37-4.31,4.31-8.61,8.62-12.92,12.92-.25.25-.57.44-.93.72Z"/>
      <path class="cls-1" d="m44.06,23.57c-.62.58-1.24,1.16-1.88,1.72-.11.1-.29.14-.44.15-2.06,0-4.13,0-6.45,0,1.11-.97,1.61-2.26,3.27-2.14,1.78.13,3.58.03,5.37.03.05.08.09.16.14.24Z"/>
      <path class="cls-1" d="m11.61,25.19c.64-.56,1.26-1.14,1.91-1.68.13-.11.34-.16.52-.17,1.97,0,3.93,0,5.9,0,.07,0,.14.05.33.13-.97.9-1.51,2.14-3.17,2.01-1.76-.15-3.54-.03-5.31-.03-.06-.09-.12-.17-.18-.26Z"/>
      <path class="cls-1" d="m23.5,25.22c.61-.56,1.21-1.12,1.82-1.67.11-.1.29-.18.43-.18,2.09-.01,4.19,0,6.28,0,.07.08.13.16.2.24-.65.58-1.3,1.16-1.96,1.73-.08.07-.19.11-.29.11-2.12,0-4.23,0-6.35,0-.05-.08-.09-.15-.14-.23Z"/>
      <path class="cls-1" d="m38.32,29.11c-.87.99-1.51,1.84-2.92,1.72-1.73-.15-3.48-.04-5.41-.04.86-.93,1.42-1.82,2.81-1.71,1.78.14,3.57.03,5.52.03Z"/>
      <path class="cls-1" d="m18.23,30.79c.83-1.28,1.76-1.83,3.17-1.71,1.62.14,3.26.03,5.04.03-.82,1.01-1.5,1.81-2.88,1.71-1.73-.12-3.48-.03-5.33-.03Z"/>
      <path class="cls-1" d="m14.56,29.11c-.85,1.26-1.81,1.84-3.26,1.71-1.52-.14-3.06-.04-4.59-.05-.08,0-.15-.04-.3-.08.76-.91,1.41-1.74,2.82-1.61,1.73.15,3.47.04,5.33.04Z"/>
      <path class="cls-1" d="m42,30.75c.92-1.49,2.28-2.07,3.82-1.59.28.09.65.55.61.78-.05.3-.45.75-.73.77-1.21.08-2.44.04-3.7.04Z"/>
      <path class="cls-1" d="m2.77,29.36c-.45.39-.86.83-1.35,1.13-.27.16-.72.21-1.01.1-.21-.08-.47-.57-.4-.76.11-.29.46-.64.76-.69.6-.11,1.22-.03,1.84-.03.05.08.11.17.16.25Z"/>
    </g>
  </g>
</svg>