<?xml version="1.0" encoding="UTF-8"?>
<svg id="Layer_2" data-name="Layer 2" xmlns="http://www.w3.org/2000/svg" viewBox="0 0 57.92 50">
  <defs>
    <style>
      .cls-1 {
        fill: #fbbb02;
      }
    </style>
  </defs>
  <g id="_レイヤー_1" data-name="レイヤー 1">
    <g>
      <path class="cls-1" d="m18.73,31.75c.49,2.08.6,4.18.21,6.29-.59,3.2-2.04,5.99-4,8.53-.69.9-1.96,1-2.86.33-.89-.67-1.08-1.84-.47-2.84.71-1.15,1.51-2.26,2.11-3.47,1.39-2.81,1.77-5.73.61-8.74-.28-.73-.59-1.45-.88-2.17-.17-.45-.04-.68.46-.81.55-.14,1.07-.39,1.58-.65,2.24-1.11,4.68-1.43,7.11-1.56,4.37-.22,7.4,2.31,8.22,6.62.15.8.27,1.61.32,2.42.07,1.29-.8,2.25-2,2.32-1.09.06-2.02-.79-2.18-1.99-.07-.54-.1-1.08-.19-1.62-.52-2.96-2.18-4.1-5.12-3.47-.95.2-1.87.51-2.91.81Z"/>
      <path class="cls-1" d="m9.77,5.23c3.79,2.11,7.6,4.22,11.41,6.34-.38.41-.73.79-1.13,1.22-3.61-2.13-7.25-4.27-10.9-6.43-.68.88-1.31,1.74-1.99,2.55-.13.15-.53.26-.7.17-.87-.44-1.72-.92-2.54-1.45-.17-.11-.34-.53-.26-.69.73-1.6,1.45-3.2,2.29-4.74.43-.78,1.07-1.44,1.65-2.12.1-.11.46-.11.62-.02.86.46,1.71.94,2.54,1.46.17.11.34.47.28.63-.37,1.01-.81,2-1.27,3.08Z"/>
      <path class="cls-1" d="m15.05,15.13c-.14.83-.28,1.62-.42,2.47,1.22.07,2.2-.33,2.92-1.13,1.1-1.23,2.09-2.55,3.09-3.86.45-.6.99-.86,1.69-.61.59.21.89.7.84,1.34-.02.21-.1.43-.2.61-1.14,1.97-2.5,3.74-4.32,5.14-1.1.84-2.32,1.26-3.71,1.22-.27,0-.54,0-.82,0-.39,1.4-.77,2.77-1.14,4.13-.03,0-.06-.02-.09-.03,0-1.27-.04-2.55.02-3.82.03-.65-.04-1.15-.56-1.64-.9-.85-1.04-2.17-.48-3.06.59-.93,1.69-1.21,3.21-.77Z"/>
      <path class="cls-1" d="m17.84,9.28c.58-1.9,2.04-3.03,3.79-3,1.8.03,3.26,1.22,3.74,3.05.05.21.07.45.19.6.62.74.62.79-.14,1.1-.05.75-.11,1.46-.17,2.31-2.57-1.41-4.97-2.73-7.41-4.06Z"/>
      <path class="cls-1" d="m22.16,16.77c1.14.53,2.29,1.05,3.5,1.61.29-.41.57-.81.9-1.27.76.45,1.52.9,2.32,1.37-.57.83-1.09,1.61-1.65,2.37-.47.64-1.1.72-1.8.39-1.03-.48-2.06-.96-3.25-1.51-.08,1.4-.15,2.7-.22,3.97-1.21-.97-.74-5.34.21-6.92Z"/>
      <path class="cls-1" d="m7.81,46.72c-.88,1.18-2.08.97-3.22.96-.16,0-.39-.11-.47-.24-.46-.8-1.27-.93-2.03-1.2-.24-.09-.57-.36-.58-.56,0-.22.26-.52.49-.67.55-.35,1.18-.57,1.7-.95.84-.62,1.66-.7,2.5-.08.32.24.65.54.83.89.32.59.53,1.24.78,1.85Z"/>
      <path class="cls-1" d="m23.08,14.6c.2-.61.36-1.11.55-1.69,2.58,1.42,5.2,2.87,7.89,4.35-.34.59-.66,1.14-1.01,1.74-2.52-1.49-4.99-2.96-7.43-4.4Z"/>
      <path class="cls-1" d="m33.83,45.59c-.59.4-1.15.79-1.85,1.26.05.02-.12-.03-.28-.11-.88-.44-1.65-.23-2.38.37-.14.11-.35.14-.53.2-.02-.2-.1-.4-.06-.59.07-.37.2-.73.29-1.1.18-.7.98-1.45,1.66-1.54.7-.09,2.69.84,3.14,1.51Z"/>
      <path class="cls-1" d="m36.62,47.4c-.72,1.04-2.57,1.48-3.64.72-.29-.2-.35-.9-.3-1.35.04-.39,1.45-.85,1.88-.72.82.24,1.72.36,2.06,1.35Z"/>
      <path class="cls-1" d="m3.99,48.02c-.32.27-.68.82-1.08.85-.87.07-1.78-.04-2.62-.28-.21-.06-.35-.9-.27-1.33.08-.43,1.44-.83,1.92-.69.8.24,1.67.35,2.04,1.45Z"/>
      <path class="cls-1" d="m49.9,46.5c-.41.5-.77.96-1.27,1.58-.29-.01-.84.03-1.35-.09-.33-.08-.71-.36-.86-.65-.23-.47-.14-.94.35-1.34.93-.77,2.03-.63,3.13.5Z"/>
      <path class="cls-1" d="m43.48,47.94c-.65.68-2.05,1.01-2.62.61-.23-.16-.44-.78-.32-.93.27-.33.8-.76,1.11-.68.64.16,1.2.63,1.84.99Z"/>
      <path class="cls-1" d="m52.31,47.91c-.63.73-2.14,1.05-2.67.61-.21-.18-.38-.75-.27-.89.28-.33.8-.77,1.11-.69.64.15,1.2.62,1.83.97Z"/>
      <path class="cls-1" d="m28.75,49.21c-.8,1.04-1.72.82-2.56.62-.21-.05-.49-.79-.38-.91.29-.33.82-.76,1.15-.68.61.14,1.15.6,1.79.98Z"/>
      <path class="cls-1" d="m24.31,47.62c-.55.79-1.29.79-2.04.55-.22-.07-.54-.52-.51-.57.31-.42.63-.87,1.06-1.14.39-.24.89-.25,1.11.37.1.27.25.53.38.78Z"/>
      <path class="cls-1" d="m20.05,47.33c-.8.92-1.61.79-2.42.7-.6-.07-.77-.6-.59-.94.2-.37.8-.84,1.11-.77.64.14,1.21.62,1.89,1.01Z"/>
      <path class="cls-1" d="m30.9,48.44c-.57-.04-1.35.09-1.27-.78.03-.31.64-.73,1.05-.82.65-.14,1.5.47,1.44.88-.1.71-.63.78-1.22.71Z"/>
      <path class="cls-1" d="m9.38,48.65c-.35,0-.72.01-1.1,0-.5-.02-1.12-.09-.93-.75.1-.36.65-.81,1.03-.85,1.09-.09,1.42.48,1,1.6Z"/>
      <path class="cls-1" d="m57.92,47.59c-.5.68-1.16.63-1.78.43-.18-.06-.38-.7-.32-.75.39-.3.83-.58,1.3-.7.15-.04.43.43.64.68.07.08.1.19.17.34Z"/>
      <path class="cls-1" d="m19.93,13.17c-.33.48-.64.91-1.09,1.56-.41-.96-.74-1.73-1.07-2.51.08-.06.16-.12.24-.19.62.37,1.25.73,1.92,1.13Z"/>
      <path class="cls-1" d="m16.21,17.08c-.09-.64-.16-1.13-.24-1.72.66.14,1.21.26,1.96.42-.64.48-1.13.85-1.72,1.3Z"/>
      <path class="cls-1" d="m28.13,14.96c1.21-.57,1.95-.16,2.12,1.16-.73-.4-1.39-.76-2.12-1.16Z"/>
      <path class="cls-1" d="m49.73,4.5v2.65h-4.64v4.31h1.68c.12.67.23,1.27.34,1.88-.69.23-1.52.26-1.86.69-.35.44-.21,1.26-.29,1.99h-3.22c0,1.43-.02,2.79.02,4.14,0,.19.33.5.53.53.78.09,1.11.54,1.26,1.24.07.34.2.66.31,1.02-.51.31-.98.64-1.48.9-.49.25-.69.57-.67,1.15.05,1.44.02,2.88.02,4.32,0,.39,0,.79,0,1.23h-4.01v2.95c.8.13,1.6.25,2.4.38.03.15.08.26.06.35-.36,1.52.22,2.53,1.62,3.15.17.08.4.31.39.46-.03.74-.13,1.48-.21,2.25-1.48-.14-2.84-.28-4.29-.42v2.76h-5.63q-.12,1.48,1.11,1.99c.15.06.33.13.4.26.5.89,1.33,1.19,2.25,1.41.61.14,1.19,1.06,1.14,1.64h2.36c.11,0,.23.03.32,0,.19-.09.4-.19.54-.34.92-1.01,1.08-1.05,2.33-.45.1.05.23.06.29.14.93,1.1,2.14.53,3.42.68-.8-1.55.48-1.99,1.21-2.71.07-.07.27-.11.35-.07.79.4,1.58.81,2.35,1.25.83.48,1.59,1.18,2.48,1.45.84.25,1.82.05,2.73.05.02-.99.85-1.18,1.35-1.53V4.5h-6.96Zm-2.12,11.49h4.69v1.66h-4.69v-1.66Zm6.01,2.89v1.68h-4.65v-1.68h4.65Zm-7.1,4.58v-1.67h4.68v1.67h-4.68Zm6.1,9.12v1.68h-4.65v-1.68h4.65Zm.01,7.55h-4.68v-1.64h4.68v1.64Zm1.47-2.98h-4.69v-1.67h4.69v1.67Z"/>
    </g>
  </g>
</svg>