<?xml version="1.0" encoding="UTF-8"?>
<svg id="Layer_2" data-name="Layer 2" xmlns="http://www.w3.org/2000/svg" viewBox="0 0 57.59 40">
  <defs>
    <style>
      .cls-1 {
        fill: #fff;
      }
    </style>
  </defs>
  <g id="_レイヤー_1" data-name="レイヤー 1">
    <g>
      <path class="cls-1" d="m56.58,35.89h1v-2.56h-1c-.09-.32-.22-.63-.38-.92l.71-.71-1.81-1.81-.71.71c-.29-.16-.6-.29-.92-.38v-1h-2.56v.82h-1.55v-.82h-2.56v.82h-1.55v-.82h-2.56v.82h-1.55v-.82h-2.56v.82h-1.55v-.82h-2.56v.82h-1.55v-.82h-2.56v.82h-1.55v-.82h-2.56v1c-.32.09-.63.22-.92.38l-.71-.71-1.81,1.81.71.71c-.16.29-.29.6-.38.92h-1v2.56h1c.09.32.22.63.38.92l-.71.71,1.81,1.81.71-.71c.29.16.6.29.92.38v1h2.56v-.82h1.55v.82h2.56v-.82h1.55v.82h2.56v-.82h1.55v.82h2.56v-.82h1.55v.82h2.56v-.82h1.55v.82h2.56v-.82h1.55v.82h2.56v-1c.32-.09.63-.22.92-.38l.71.71,1.81-1.81-.71-.71c.16-.29.29-.6.38-.92Zm-27.67.35c-.9,0-1.63-.73-1.63-1.63s.73-1.63,1.63-1.63,1.63.73,1.63,1.63-.73,1.63-1.63,1.63Zm5.48,0c-.9,0-1.63-.73-1.63-1.63s.73-1.63,1.63-1.63,1.63.73,1.63,1.63-.73,1.63-1.63,1.63Zm5.48,0c-.9,0-1.63-.73-1.63-1.63s.73-1.63,1.63-1.63,1.63.73,1.63,1.63-.73,1.63-1.63,1.63Zm5.48,0c-.9,0-1.63-.73-1.63-1.63s.73-1.63,1.63-1.63,1.63.73,1.63,1.63-.73,1.63-1.63,1.63Zm5.48,0c-.9,0-1.63-.73-1.63-1.63s.73-1.63,1.63-1.63,1.63.73,1.63,1.63-.73,1.63-1.63,1.63Z"/>
      <path class="cls-1" d="m54.3,16.93h-13.83V7.08c0-.44-.36-.8-.8-.8h-11.93c-.41,0-.75.31-.79.72l-.98,9.8-2.67-2.39s-.06-.07-.09-.09L6.88.75c-.17-.22-.39-.4-.64-.53h0c-.14-.12-.31-.18-.48-.18-.05-.01-.11-.02-.17-.03-1.07-.14-2.05.63-2.19,1.7L.02,28.44c-.01.12-.02.23-.01.35,0,.03,0,.06,0,.09.02.18.06.35.12.51l1.78,7.41c.04.16.16.28.31.33l4.08,1.25s.09.02.13.02.09,0,.14-.02l3.83-1.22c.09-.03.17-.09.23-.16l4.24-5.78c.08-.1.11-.24.08-.36l-.94-4.52c-.04-.19-.2-.34-.39-.36-.02,0-.04,0-.05,0-.18,0-.34.1-.41.26l-.97,1.37-8.21.74,2.05-16.28,14.14,6.17,5.19,4.64-.4,4c-.02.22.05.45.2.61.15.17.36.26.59.26h28.54c.44,0,.8-.36.8-.8v-9.23c0-.44-.36-.8-.8-.8ZM2.17,28.81c-.57,0-1.03-.46-1.03-1.03s.46-1.03,1.03-1.03,1.03.46,1.03,1.03-.46,1.03-1.03,1.03ZM6.7,6.97s-.02,0-.03-.01l.51-4.05,10.84,9.01L6.7,6.97Zm31.37,12.31h-9.96l1.06-10.61h8.9v10.61Zm14.23,6.39h-7.55v-1.19h7.55v1.19Zm0-2.78h-7.55v-1.19h7.55v1.19Zm0-2.78h-7.55v-1.19h7.55v1.19Z"/>
    </g>
  </g>
</svg>