<?xml version="1.0" encoding="UTF-8"?>
<svg id="Layer_2" data-name="Layer 2" xmlns="http://www.w3.org/2000/svg" viewBox="0 0 41.78 40">
  <defs>
    <style>
      .cls-1 {
        fill: #fbbb02;
      }
    </style>
  </defs>
  <g id="_レイヤー_1" data-name="レイヤー 1">
    <g>
      <path class="cls-1" d="m27.34,13.76H9.42c.55.29,1.2.55,1.96.83-3.42,1.25-4.44,2.27-5.69,5.69-.53-1.44-1.02-2.46-1.66-3.24L0,24.68h2.69v15.32h28.36v-15.32h2.1l-5.81-10.92Zm-17.45,20.1h-3.55v-5.66h3.55v5.66Zm5.66,0h-3.55v-5.66h3.55v5.66Zm13.73,4.36h-7.74v-13.44l3.84-7.22,3.9,7.34v13.32Z"/>
      <path class="cls-1" d="m9.42,13.76c-1.93-.99-2.76-2.2-3.73-4.86-1.25,3.42-2.27,4.44-5.69,5.69,1.98.73,3.16,1.37,4.04,2.45l1.74-3.28h3.65Z"/>
      <path class="cls-1" d="m30.82,6.25c-3.76,1.38-4.87,2.49-6.25,6.25-1.38-3.76-2.49-4.87-6.25-6.25,3.76-1.38,4.87-2.49,6.25-6.25,1.38,3.76,2.49,4.87,6.25,6.25Z"/>
      <path class="cls-1" d="m41.78,32.32c-2.7.99-3.51,1.79-4.5,4.5-.99-2.7-1.79-3.51-4.5-4.5,2.7-.99,3.51-1.79,4.5-4.5.99,2.7,1.79,3.51,4.5,4.5Z"/>
    </g>
  </g>
</svg>