<?xml version="1.0" encoding="UTF-8"?>
<svg id="Layer_2" data-name="Layer 2" xmlns="http://www.w3.org/2000/svg" viewBox="0 0 44.31 40">
  <defs>
    <style>
      .cls-1 {
        fill: #fbbb02;
      }
    </style>
  </defs>
  <g id="_レイヤー_1" data-name="レイヤー 1">
    <g>
      <circle class="cls-1" cx="37.74" cy="9.65" r="5.2" transform="translate(-1.21 9.06) rotate(-13.47)"/>
      <path class="cls-1" d="m20.16,33.57c-.07.6-.61,1.03-1.21.96l-7.03-.8c-.6-.07-1.03-.61-.96-1.21l1.3-11.35c.07-.6.61-1.03,1.21-.96l7.03.8c.6.07,1.03.61.96,1.21l-.26,2.24,3.53-.66V0H0v39.37h24.72v-7.47l-4.4.23-.17,1.45ZM15.55,7.67c.84,2.49,1.52,3.17,4.01,4.01-2.49.84-3.17,1.52-4.01,4.01-.84-2.49-1.52-3.17-4.01-4.01,2.49-.84,3.17-1.52,4.01-4.01ZM6.06,25.66c-.48-1.42-.87-1.81-2.29-2.29,1.42-.48,1.81-.87,2.29-2.29.48,1.42.87,1.81,2.29,2.29-1.42.48-1.81.87-2.29,2.29Z"/>
      <path class="cls-1" d="m38.41,16.27h-1.35c-1.21,0-2.77.27-4.13,1.69-.19.19-6.03,6.81-6.03,6.81l-8.86,1.65c-1.09.2-1.89,1.19-1.83,2.32.06,1.24,1.12,2.19,2.36,2.13l10.19-.53c.46-.02.91-.18,1.3-.49l1.71-1.36,1.09,11.51h11.47v-17.84c0-3.26-2.64-5.9-5.9-5.9Z"/>
      <path class="cls-1" d="m29.16,5.87c.61-1.8,1.1-2.29,2.89-2.89-1.8-.61-2.29-1.1-2.89-2.89-.61,1.8-1.1,2.29-2.89,2.89,1.8.61,2.29,1.1,2.89,2.89Z"/>
    </g>
  </g>
</svg>