<?xml version="1.0" encoding="UTF-8"?>
<svg id="Layer_2" data-name="Layer 2" xmlns="http://www.w3.org/2000/svg" viewBox="0 0 62.04 40">
  <defs>
    <style>
      .cls-1 {
        fill: #fbbb02;
      }
    </style>
  </defs>
  <g id="_レイヤー_1" data-name="レイヤー 1">
    <path class="cls-1" d="m61.98,14.45l-3.74-13.24c-.25-.88-1.17-1.39-2.05-1.15l-8.13,2.3c-.49.14-.86.48-1.06.92l-7.27.41-8.45-2.41c-1.15-.33-2.4-.11-3.37.59l-1.22.87-11.67.52c-.2-.42-.57-.76-1.05-.9L5.85.06c-.88-.25-1.8.27-2.05,1.15L.06,14.45c-.25.88.27,1.8,1.15,2.05l8.13,2.3c.45.13.9.05,1.28-.16l1.92,1.96-1.59,1.39c-.73.64-1.17,1.53-1.24,2.5-.07.97.25,1.91.89,2.65.69.79,1.7,1.25,2.75,1.25.01,0,.03,0,.04,0-.04.94.27,1.85.89,2.56.69.79,1.7,1.25,2.75,1.25,0,0,.02,0,.02,0-.05.95.27,1.86.89,2.58.69.79,1.7,1.25,2.75,1.25.12,0,.25,0,.37-.02.27-.03.52-.08.77-.17.11.67.4,1.3.85,1.83.69.79,1.7,1.25,2.75,1.25.12,0,.25,0,.37-.02.75-.08,1.45-.38,2.03-.88l.97-.85,1.04,1.06.54.56c.69.72,1.61,1.15,2.61,1.22,0,0,0,0,0,0,.05,0,.09,0,.14,0,.03,0,.05,0,.08,0,.01,0,.03,0,.04,0,.02,0,.03,0,.05,0,.04,0,.08,0,.12,0,.02,0,.04,0,.05,0,.05,0,.1,0,.15-.01,0,0,.01,0,.02,0,.86-.08,1.7-.44,2.37-1.08.55-.53.93-1.2,1.11-1.93.23.07.47.11.71.13.02,0,.04,0,.06,0,.05,0,.11,0,.16,0,.04,0,.08,0,.13,0,.02,0,.03,0,.05,0,.04,0,.07,0,.11,0,.02,0,.05,0,.07,0,.07,0,.13,0,.2-.01.05,0,.09-.01.14-.02.02,0,.05,0,.07,0,.05,0,.11-.02.16-.03,0,0,.01,0,.02,0,.72-.14,1.42-.48,1.99-1.03.69-.66,1.11-1.55,1.21-2.49.21.03.43.05.64.05,0,0,.01,0,.02,0,.03,0,.06,0,.09,0,.04,0,.07,0,.11,0,.04,0,.09,0,.13,0,.02,0,.04,0,.06,0,.05,0,.1-.01.15-.02,0,0,.01,0,.02,0,.79-.11,1.56-.47,2.18-1.06.61-.59,1.01-1.34,1.16-2.16.24.07.48.11.73.13,0,0,.02,0,.02,0,.05,0,.11,0,.16,0,.04,0,.08,0,.12,0,.01,0,.02,0,.03,0,.05,0,.11,0,.16,0,.04,0,.08,0,.12,0,.04,0,.08,0,.12,0,.05,0,.09-.01.14-.02.02,0,.04,0,.06,0,.79-.12,1.54-.47,2.16-1.06.93-.89,1.37-2.19,1.18-3.47-.12-.82-.49-1.56-1.06-2.16l-1.69-1.73,2.49-3.32c.35.17.76.22,1.17.1l8.13-2.3c.88-.25,1.39-1.17,1.15-2.05ZM13.34,26.28c-.45,0-.86-.19-1.16-.53-.27-.31-.41-.71-.38-1.12.03-.41.21-.79.53-1.06l4.18-3.65c.31-.27.64-.35.86-.37.05,0,.11,0,.17,0,.45,0,.86.19,1.16.53.27.31.41.71.38,1.12-.03.41-.21.79-.53,1.06l-4.18,3.65c-.31.27-.64.35-.86.37-.05,0-.11,0-.17,0Zm3.69,3.81c-.45,0-.86-.19-1.16-.53-.27-.31-.41-.71-.38-1.12.03-.41.21-.79.53-1.06l4.18-3.65c.31-.27.64-.35.86-.37.06,0,.11,0,.17,0,.45,0,.86.19,1.16.53.27.31.41.71.38,1.12-.03.41-.21.79-.53,1.06l-4.18,3.65c-.31.27-.64.35-.86.37-.06,0-.11,0-.17,0Zm3.84,3.82c-.05,0-.11,0-.17,0-.45,0-.86-.19-1.16-.53-.27-.31-.41-.71-.38-1.12.03-.41.21-.79.53-1.06l4.18-3.65c.31-.27.64-.35.86-.37.05,0,.11,0,.17,0,.45,0,.86.19,1.16.53.56.64.5,1.62-.15,2.18l-4.18,3.65c-.31.27-.64.35-.86.37Zm5.61,2.52c-.31.27-.64.35-.86.37-.05,0-.11,0-.17,0-.45,0-.86-.19-1.16-.53-.56-.64-.5-1.62.15-2.18l3.06-2.65c.31-.27.64-.35.86-.37.05,0,.11,0,.17,0,.45,0,.86.19,1.16.53.56.64.5,1.62-.15,2.18l-3.06,2.65Zm21.39-8.16h0s-.08,0-.12,0c0,0,0,0,0,0-.12,0-.24-.03-.36-.06l-.09-.02c-.27-.09-.52-.24-.72-.45l-1.66-1.73c-.19-.2-.45-.31-.72-.31-.2,0-.4.06-.57.18l-.19.13c-.24.17-.39.43-.42.72-.03.29.07.58.27.79l.85.89c.32.34.43.71.47.96.09.59-.1,1.13-.53,1.54-.29.28-.66.44-1.05.48-.05,0-.11,0-.16,0-.04,0-.08,0-.12,0,0,0-.02,0-.03,0-.04,0-.09,0-.13-.02-.03,0-.06,0-.1-.02-.35-.07-.67-.25-.91-.51l-1.45-1.51c-.19-.2-.45-.3-.72-.3-.2,0-.4.06-.57.18l-.2.14c-.24.17-.39.43-.42.72-.03.29.07.58.27.79l1.04,1.08c.32.34.43.71.47.96.09.59-.1,1.13-.53,1.54-.29.27-.65.44-1.04.48-.06,0-.11,0-.17,0-.17,0-.34-.02-.5-.07l-.09-.02c-.27-.09-.51-.24-.71-.45l-.16-.16c-.18-.35-.4-.66-.67-.94l-.68-.7c-.19-.2-.45-.3-.72-.3-.2,0-.4.06-.57.18l-.18.13c-.24.17-.39.43-.42.72-.03.29.07.58.27.79l.69.72c.18.19.32.41.4.66.03.1.06.2.07.3.09.59-.1,1.13-.53,1.54-.29.28-.66.44-1.05.48-.05,0-.11,0-.16,0-.49,0-.94-.19-1.28-.54l-1.52-1.54.41-.35c1.52-1.32,1.67-3.63.35-5.15-.69-.79-1.68-1.24-2.73-1.25.06-.97-.25-1.91-.89-2.64-.69-.79-1.7-1.25-2.75-1.25,0,0-.02,0-.02,0,.05-.91-.25-1.84-.89-2.58-.69-.79-1.7-1.25-2.75-1.25-.01,0-.03,0-.04,0,.04-.9-.25-1.82-.89-2.56-.69-.79-1.7-1.25-2.75-1.25-.12,0-.25,0-.37.02-.75.08-1.45.38-2.03.88l-.92.8-2.49-2.53s-.01-.04-.02-.05l3.13-11.06,8.6-.38-1.16.83c-1.76,1.27-2.16,3.72-.89,5.48.77,1.07,1.97,1.63,3.19,1.63.79,0,1.6-.24,2.29-.74l4.11-2.96,3.98,1.43,14.2,14.48c.32.34.43.71.47.96.09.59-.1,1.13-.53,1.54-.29.27-.65.44-1.05.48-.05,0-.11,0-.17,0Zm-.39-7.85l-11.32-11.53-4.76-1.72-.78-.28-5.06,3.64c-.29.21-.64.32-1,.32-.56,0-1.07-.26-1.39-.71-.27-.37-.37-.83-.3-1.28.07-.45.32-.85.69-1.12l3.9-2.81,1.75-1.26c.29-.21.64-.32,1-.32.16,0,.32.02.47.07l8.81,2.51,7.73-.44,3.14,11.1-2.87,3.83Z"/>
  </g>
</svg>