<?xml version="1.0" encoding="UTF-8"?>
<svg id="Layer_2" data-name="Layer 2" xmlns="http://www.w3.org/2000/svg" viewBox="0 0 52.59 40">
  <defs>
    <style>
      .cls-1 {
        fill: #fbbb02;
      }
    </style>
  </defs>
  <g id="_レイヤー_1" data-name="レイヤー 1">
    <g>
      <path class="cls-1" d="m0,19.31c0-4.15,3.38-7.55,7.51-7.54,4.08.02,7.49,3.42,7.5,7.49.01,4.13-3.39,7.52-7.53,7.52C3.36,26.78,0,23.43,0,19.31Z"/>
      <path class="cls-1" d="m25.88,7.17c-.03,3.98-3.19,7.11-7.17,7.09-3.95-.02-7.1-3.24-7.06-7.21C11.69,3.12,14.87-.02,18.79,0c3.97.02,7.11,3.2,7.09,7.17Z"/>
      <path class="cls-1" d="m37.05,17.5c0,3.64-2.84,6.54-6.45,6.58-3.58.04-6.6-2.97-6.59-6.57,0-3.59,2.94-6.51,6.53-6.51,3.64,0,6.5,2.86,6.5,6.49Z"/>
      <path class="cls-1" d="m17.58,14.97h2.38c.2,2.93.39,5.83.6,8.88,1.28-.98,2.48-1.89,3.67-2.8.71.6.92,1.13.32,1.97-1.17,1.65-2.24,3.37-3.3,5.09-.24.39-.35.93-.32,1.38.2,3.46.44,6.93.68,10.46h-5.65c.09-1.65.18-3.28.28-4.91.14-2.13.31-4.26.42-6.4.02-.32-.14-.7-.34-.96-.56-.76-1.18-1.47-1.78-2.2q-.88-1.08.05-2.19c.74.48,1.48.95,2.33,1.5.22-3.32.43-6.55.65-9.84Z"/>
      <path class="cls-1" d="m46.41,36.66c0-1.35,0-2.65,0-3.95,0-.25-.09-.56.02-.74.22-.33.51-.74.85-.82.51-.11.8.3.8.83.01,1.17,0,2.33,0,3.5,0,1.49,0,2.99,0,4.52h-1.67v-1.76h-20.22v1.75h-1.68c0-.95,0-1.88,0-2.82,0-1.67,0-3.34,0-5,0-.56.16-1.03.8-1.04.68-.02.88.42.87,1.05-.02,1.47,0,2.94,0,4.49h20.23Z"/>
      <path class="cls-1" d="m26.72,32.89v-1.71h19.09v1.71h-19.09Z"/>
      <path class="cls-1" d="m26.72,35.27v-1.64h19.1v1.64h-19.1Z"/>
      <path class="cls-1" d="m25.35,30.88h0c.46,0,.83.37.83.83v8.27h-1.67v-8.27c0-.46.37-.83.83-.83Z"/>
      <path class="cls-1" d="m47.21,30.88h.03c.47,0,.85.38.85.85v8.26h-1.73v-8.26c0-.47.38-.85.85-.85Z"/>
      <path class="cls-1" d="m52.59,21.39c.01-1.18-.23-2.28-.57-3.37-.67-2.09-2.94-3.28-5.14-2.74-2,.49-3.42,2.53-3.11,4.47-.57.34-1.13.67-1.57.93.14.38.29.65.33.93.35,2.48.41,2.54,2.54,2.33.03,0,.05-.02.08-.03.53-.97.13-2.22.94-3.16-.54-.32-1.1-.66-1.67-1,.09-.42.15-.74.23-1.06.39-1.59,1.7-2.64,3.31-2.65,1.58-.02,2.97,1.03,3.3,2.63.1.48-.18,1.03-.18,1.55-.01,6.31,0,12.61,0,18.92v.79h1.51c0-.37,0-.7,0-1.02,0-5.84-.03-11.67.02-17.51Zm-7.47-.38c-.15.79-.29,1.56-.43,2.33-.1,0-.2-.01-.3-.02,0-.58.02-1.17-.01-1.75,0-.02,0-.03,0-.05v-.16c0-.17-.14-.31-.31-.31s-.31.14-.31.31v.54c-.02.46,0,.92,0,1.38-.09,0-.17.02-.26.03-.14-.75-.28-1.51-.43-2.31h2.07Z"/>
    </g>
  </g>
</svg>